<mxfile host="app.diagrams.net" agent="Mozilla/5.0 (Windows NT 10.0; Win64; x64) AppleWebKit/537.36 (KHTML, like Gecko) Chrome/134.0.0.0 Safari/537.36" version="26.2.8">
  <diagram id="C5RBs43oDa-KdzZeNtuy" name="Page-1">
    <mxGraphModel grid="1" page="1" gridSize="10" guides="1" tooltips="1" connect="1" arrows="1" fold="1" pageScale="1" pageWidth="827" pageHeight="1169" math="0" shadow="0">
      <root>
        <mxCell id="WIyWlLk6GJQsqaUBKTNV-0" />
        <mxCell id="WIyWlLk6GJQsqaUBKTNV-1" parent="WIyWlLk6GJQsqaUBKTNV-0" />
        <mxCell id="ohkI9ZFS-GwTWgNQGemk-0" value="" style="ellipse;fillColor=strokeColor;html=1;" vertex="1" parent="WIyWlLk6GJQsqaUBKTNV-1">
          <mxGeometry x="70" y="100" width="30" height="30" as="geometry" />
        </mxCell>
        <mxCell id="ohkI9ZFS-GwTWgNQGemk-1" value="Đăng nhập" style="rounded=1;whiteSpace=wrap;html=1;" vertex="1" parent="WIyWlLk6GJQsqaUBKTNV-1">
          <mxGeometry x="130" y="92.5" width="80" height="45" as="geometry" />
        </mxCell>
        <mxCell id="ohkI9ZFS-GwTWgNQGemk-2" value="" style="endArrow=open;startArrow=none;endFill=0;startFill=0;endSize=8;html=1;verticalAlign=bottom;labelBackgroundColor=none;strokeWidth=1;rounded=0;fontSize=12;curved=1;entryX=0;entryY=0.5;entryDx=0;entryDy=0;" edge="1" parent="WIyWlLk6GJQsqaUBKTNV-1" target="ohkI9ZFS-GwTWgNQGemk-1">
          <mxGeometry width="160" relative="1" as="geometry">
            <mxPoint x="100" y="114.5" as="sourcePoint" />
            <mxPoint x="260" y="114.5" as="targetPoint" />
          </mxGeometry>
        </mxCell>
        <mxCell id="ohkI9ZFS-GwTWgNQGemk-24" value="" style="edgeStyle=none;curved=1;rounded=0;orthogonalLoop=1;jettySize=auto;html=1;fontSize=12;startSize=8;endSize=8;" edge="1" parent="WIyWlLk6GJQsqaUBKTNV-1" source="ohkI9ZFS-GwTWgNQGemk-3" target="ohkI9ZFS-GwTWgNQGemk-1">
          <mxGeometry relative="1" as="geometry" />
        </mxCell>
        <mxCell id="ohkI9ZFS-GwTWgNQGemk-3" value="Truy cập thông tin cửa hàng" style="rounded=1;whiteSpace=wrap;html=1;" vertex="1" parent="WIyWlLk6GJQsqaUBKTNV-1">
          <mxGeometry x="240" y="92.5" width="80" height="45" as="geometry" />
        </mxCell>
        <mxCell id="ohkI9ZFS-GwTWgNQGemk-4" value="" style="endArrow=open;startArrow=none;endFill=0;startFill=0;endSize=8;html=1;verticalAlign=bottom;labelBackgroundColor=none;strokeWidth=1;rounded=0;fontSize=12;curved=1;entryX=0;entryY=0.5;entryDx=0;entryDy=0;" edge="1" parent="WIyWlLk6GJQsqaUBKTNV-1">
          <mxGeometry width="160" relative="1" as="geometry">
            <mxPoint x="210" y="114.5" as="sourcePoint" />
            <mxPoint x="240" y="115" as="targetPoint" />
          </mxGeometry>
        </mxCell>
        <mxCell id="ohkI9ZFS-GwTWgNQGemk-6" value="" style="endArrow=open;startArrow=none;endFill=0;startFill=0;endSize=8;html=1;verticalAlign=bottom;labelBackgroundColor=none;strokeWidth=1;rounded=0;fontSize=12;curved=1;" edge="1" parent="WIyWlLk6GJQsqaUBKTNV-1">
          <mxGeometry width="160" relative="1" as="geometry">
            <mxPoint x="280" y="160" as="sourcePoint" />
            <mxPoint x="280" y="180" as="targetPoint" />
          </mxGeometry>
        </mxCell>
        <mxCell id="ohkI9ZFS-GwTWgNQGemk-7" value="" style="endArrow=none;html=1;rounded=0;fontSize=12;startSize=8;endSize=8;curved=1;" edge="1" parent="WIyWlLk6GJQsqaUBKTNV-1">
          <mxGeometry width="50" height="50" relative="1" as="geometry">
            <mxPoint x="326" y="180" as="sourcePoint" />
            <mxPoint x="236" y="180" as="targetPoint" />
          </mxGeometry>
        </mxCell>
        <mxCell id="ohkI9ZFS-GwTWgNQGemk-9" value="" style="endArrow=open;startArrow=none;endFill=0;startFill=0;endSize=8;html=1;verticalAlign=bottom;labelBackgroundColor=none;strokeWidth=1;rounded=0;fontSize=12;curved=1;entryX=0.5;entryY=0;entryDx=0;entryDy=0;" edge="1" parent="WIyWlLk6GJQsqaUBKTNV-1" target="ohkI9ZFS-GwTWgNQGemk-10">
          <mxGeometry width="160" relative="1" as="geometry">
            <mxPoint x="310" y="180" as="sourcePoint" />
            <mxPoint x="360" y="240" as="targetPoint" />
          </mxGeometry>
        </mxCell>
        <mxCell id="ohkI9ZFS-GwTWgNQGemk-10" value="chọn thêm thông tin cửa hàng" style="rounded=1;whiteSpace=wrap;html=1;" vertex="1" parent="WIyWlLk6GJQsqaUBKTNV-1">
          <mxGeometry x="530" y="240" width="100" height="45" as="geometry" />
        </mxCell>
        <mxCell id="ohkI9ZFS-GwTWgNQGemk-11" value="Sửa thông tin cửa hàng" style="rounded=1;whiteSpace=wrap;html=1;" vertex="1" parent="WIyWlLk6GJQsqaUBKTNV-1">
          <mxGeometry x="240" y="240" width="80" height="45" as="geometry" />
        </mxCell>
        <mxCell id="ohkI9ZFS-GwTWgNQGemk-12" value="" style="endArrow=open;startArrow=none;endFill=0;startFill=0;endSize=8;html=1;verticalAlign=bottom;labelBackgroundColor=none;strokeWidth=1;rounded=0;fontSize=12;curved=1;entryX=0.5;entryY=0;entryDx=0;entryDy=0;" edge="1" parent="WIyWlLk6GJQsqaUBKTNV-1" target="ohkI9ZFS-GwTWgNQGemk-11">
          <mxGeometry width="160" relative="1" as="geometry">
            <mxPoint x="280" y="180" as="sourcePoint" />
            <mxPoint x="430" y="115.63" as="targetPoint" />
          </mxGeometry>
        </mxCell>
        <mxCell id="ohkI9ZFS-GwTWgNQGemk-13" value="chọn xóa thông tin cửa hàng" style="rounded=1;whiteSpace=wrap;html=1;" vertex="1" parent="WIyWlLk6GJQsqaUBKTNV-1">
          <mxGeometry x="-80" y="240" width="80" height="45" as="geometry" />
        </mxCell>
        <mxCell id="ohkI9ZFS-GwTWgNQGemk-14" value="" style="endArrow=open;startArrow=none;endFill=0;startFill=0;endSize=8;html=1;verticalAlign=bottom;labelBackgroundColor=none;strokeWidth=1;rounded=0;fontSize=12;curved=1;entryX=0.5;entryY=0;entryDx=0;entryDy=0;" edge="1" parent="WIyWlLk6GJQsqaUBKTNV-1" target="ohkI9ZFS-GwTWgNQGemk-13">
          <mxGeometry width="160" relative="1" as="geometry">
            <mxPoint x="250" y="180" as="sourcePoint" />
            <mxPoint x="440" y="125.63" as="targetPoint" />
          </mxGeometry>
        </mxCell>
        <mxCell id="ohkI9ZFS-GwTWgNQGemk-19" value="" style="endArrow=open;html=1;rounded=0;align=center;verticalAlign=top;endFill=0;labelBackgroundColor=none;endSize=6;fontSize=12;curved=1;exitX=0.5;exitY=1;exitDx=0;exitDy=0;" edge="1" parent="WIyWlLk6GJQsqaUBKTNV-1" source="ohkI9ZFS-GwTWgNQGemk-13">
          <mxGeometry relative="1" as="geometry">
            <mxPoint x="-40" y="320" as="targetPoint" />
          </mxGeometry>
        </mxCell>
        <mxCell id="ohkI9ZFS-GwTWgNQGemk-20" value="" style="endArrow=open;html=1;rounded=0;align=center;verticalAlign=top;endFill=0;labelBackgroundColor=none;endSize=6;fontSize=12;curved=1;exitX=0.5;exitY=1;exitDx=0;exitDy=0;" edge="1" parent="WIyWlLk6GJQsqaUBKTNV-1">
          <mxGeometry relative="1" as="geometry">
            <mxPoint x="280" y="320" as="targetPoint" />
            <mxPoint x="279.55" y="285" as="sourcePoint" />
          </mxGeometry>
        </mxCell>
        <mxCell id="ohkI9ZFS-GwTWgNQGemk-25" value="" style="endArrow=open;startArrow=none;endFill=0;startFill=0;endSize=8;html=1;verticalAlign=bottom;labelBackgroundColor=none;strokeWidth=1;rounded=0;fontSize=12;curved=1;exitX=1;exitY=0.5;exitDx=0;exitDy=0;" edge="1" parent="WIyWlLk6GJQsqaUBKTNV-1" source="ohkI9ZFS-GwTWgNQGemk-3">
          <mxGeometry width="160" relative="1" as="geometry">
            <mxPoint x="370" y="120" as="sourcePoint" />
            <mxPoint x="370" y="115" as="targetPoint" />
          </mxGeometry>
        </mxCell>
        <mxCell id="ohkI9ZFS-GwTWgNQGemk-26" value="" style="shape=rhombus;html=1;verticalLabelPosition=bottom;verticalAlignment=top;" vertex="1" parent="WIyWlLk6GJQsqaUBKTNV-1">
          <mxGeometry x="373" y="95" width="40" height="40" as="geometry" />
        </mxCell>
        <mxCell id="ohkI9ZFS-GwTWgNQGemk-28" value="[Thoát]" style="edgeStyle=elbowEdgeStyle;html=1;elbow=vertical;verticalAlign=bottom;endArrow=open;rounded=0;labelBackgroundColor=none;endSize=12;fontSize=12;curved=1;exitX=1;exitY=0.5;exitDx=0;exitDy=0;" edge="1" parent="WIyWlLk6GJQsqaUBKTNV-1" source="ohkI9ZFS-GwTWgNQGemk-26">
          <mxGeometry x="-0.1925" y="5" relative="1" as="geometry">
            <mxPoint x="480" y="115" as="targetPoint" />
            <mxPoint as="offset" />
          </mxGeometry>
        </mxCell>
        <mxCell id="ohkI9ZFS-GwTWgNQGemk-30" value="" style="ellipse;html=1;shape=endState;fillColor=strokeColor;" vertex="1" parent="WIyWlLk6GJQsqaUBKTNV-1">
          <mxGeometry x="480" y="100" width="30" height="30" as="geometry" />
        </mxCell>
        <mxCell id="ohkI9ZFS-GwTWgNQGemk-31" value="" style="endArrow=none;html=1;rounded=0;fontSize=12;startSize=8;endSize=8;curved=1;" edge="1" parent="WIyWlLk6GJQsqaUBKTNV-1">
          <mxGeometry width="50" height="50" relative="1" as="geometry">
            <mxPoint x="280" y="160" as="sourcePoint" />
            <mxPoint x="390" y="160" as="targetPoint" />
          </mxGeometry>
        </mxCell>
        <mxCell id="ohkI9ZFS-GwTWgNQGemk-32" value="" style="endArrow=none;html=1;rounded=0;fontSize=12;startSize=8;endSize=8;curved=1;exitX=0.5;exitY=1;exitDx=0;exitDy=0;" edge="1" parent="WIyWlLk6GJQsqaUBKTNV-1" source="ohkI9ZFS-GwTWgNQGemk-26">
          <mxGeometry width="50" height="50" relative="1" as="geometry">
            <mxPoint x="290" y="170" as="sourcePoint" />
            <mxPoint x="393" y="160" as="targetPoint" />
          </mxGeometry>
        </mxCell>
        <mxCell id="ohkI9ZFS-GwTWgNQGemk-33" value="[Tiếp tục]" style="edgeLabel;html=1;align=center;verticalAlign=middle;resizable=0;points=[];fontSize=12;" connectable="0" vertex="1" parent="ohkI9ZFS-GwTWgNQGemk-32">
          <mxGeometry x="-0.18" y="1" relative="1" as="geometry">
            <mxPoint as="offset" />
          </mxGeometry>
        </mxCell>
        <mxCell id="ohkI9ZFS-GwTWgNQGemk-34" value="" style="shape=rhombus;html=1;verticalLabelPosition=bottom;verticalAlignment=top;" vertex="1" parent="WIyWlLk6GJQsqaUBKTNV-1">
          <mxGeometry x="560" y="320" width="40" height="40" as="geometry" />
        </mxCell>
        <mxCell id="ohkI9ZFS-GwTWgNQGemk-35" value="" style="edgeStyle=elbowEdgeStyle;html=1;elbow=horizontal;align=right;verticalAlign=bottom;endArrow=none;rounded=0;labelBackgroundColor=none;startArrow=open;startSize=12;fontSize=12;curved=1;" edge="1" parent="WIyWlLk6GJQsqaUBKTNV-1" source="ohkI9ZFS-GwTWgNQGemk-34">
          <mxGeometry relative="1" as="geometry">
            <mxPoint x="580" y="285" as="targetPoint" />
          </mxGeometry>
        </mxCell>
        <mxCell id="ohkI9ZFS-GwTWgNQGemk-36" value="[thêm ảnh" style="edgeStyle=elbowEdgeStyle;html=1;elbow=vertical;verticalAlign=bottom;endArrow=open;rounded=0;labelBackgroundColor=none;endSize=12;fontSize=12;curved=1;" edge="1" parent="WIyWlLk6GJQsqaUBKTNV-1">
          <mxGeometry x="-0.99" relative="1" as="geometry">
            <mxPoint x="660" y="400" as="targetPoint" />
            <mxPoint x="659.9999999999999" y="339.699696969697" as="sourcePoint" />
            <mxPoint as="offset" />
          </mxGeometry>
        </mxCell>
        <mxCell id="ohkI9ZFS-GwTWgNQGemk-37" value="[thêm địa chỉ&amp;nbsp;&lt;div&gt;chi nhánh khác]&lt;/div&gt;" style="edgeStyle=elbowEdgeStyle;html=1;elbow=vertical;verticalAlign=bottom;endArrow=open;rounded=0;labelBackgroundColor=none;endSize=12;fontSize=12;curved=1;entryX=0.5;entryY=0;entryDx=0;entryDy=0;" edge="1" parent="WIyWlLk6GJQsqaUBKTNV-1" target="ohkI9ZFS-GwTWgNQGemk-40">
          <mxGeometry x="-1" y="10" relative="1" as="geometry">
            <mxPoint x="480" y="345" as="targetPoint" />
            <mxPoint x="500" y="340" as="sourcePoint" />
            <Array as="points" />
            <mxPoint as="offset" />
          </mxGeometry>
        </mxCell>
        <mxCell id="ohkI9ZFS-GwTWgNQGemk-39" value="" style="endArrow=none;html=1;rounded=0;fontSize=12;startSize=8;endSize=8;curved=1;exitX=0;exitY=0.5;exitDx=0;exitDy=0;" edge="1" parent="WIyWlLk6GJQsqaUBKTNV-1" source="ohkI9ZFS-GwTWgNQGemk-34">
          <mxGeometry width="50" height="50" relative="1" as="geometry">
            <mxPoint x="620" y="350" as="sourcePoint" />
            <mxPoint x="500" y="340" as="targetPoint" />
            <Array as="points">
              <mxPoint x="500" y="340" />
            </Array>
          </mxGeometry>
        </mxCell>
        <mxCell id="ohkI9ZFS-GwTWgNQGemk-40" value="chọn thêm địa chỉ nhi nhánh khác" style="rounded=1;whiteSpace=wrap;html=1;" vertex="1" parent="WIyWlLk6GJQsqaUBKTNV-1">
          <mxGeometry x="450" y="400" width="100" height="50" as="geometry" />
        </mxCell>
        <mxCell id="ohkI9ZFS-GwTWgNQGemk-41" value="" style="endArrow=none;html=1;rounded=0;fontSize=12;startSize=8;endSize=8;curved=1;exitX=0;exitY=0.5;exitDx=0;exitDy=0;" edge="1" parent="WIyWlLk6GJQsqaUBKTNV-1">
          <mxGeometry width="50" height="50" relative="1" as="geometry">
            <mxPoint x="660" y="339.7" as="sourcePoint" />
            <mxPoint x="600" y="339.7" as="targetPoint" />
            <Array as="points">
              <mxPoint x="600" y="339.7" />
            </Array>
          </mxGeometry>
        </mxCell>
        <mxCell id="ohkI9ZFS-GwTWgNQGemk-42" value="chọn thêm ảnh" style="rounded=1;whiteSpace=wrap;html=1;" vertex="1" parent="WIyWlLk6GJQsqaUBKTNV-1">
          <mxGeometry x="610" y="400" width="100" height="50" as="geometry" />
        </mxCell>
        <mxCell id="ohkI9ZFS-GwTWgNQGemk-43" value="Điền thông tin địa chỉ" style="rounded=1;whiteSpace=wrap;html=1;" vertex="1" parent="WIyWlLk6GJQsqaUBKTNV-1">
          <mxGeometry x="450" y="480" width="100" height="40" as="geometry" />
        </mxCell>
        <mxCell id="ohkI9ZFS-GwTWgNQGemk-44" value="" style="edgeStyle=elbowEdgeStyle;html=1;elbow=vertical;verticalAlign=bottom;endArrow=open;rounded=0;labelBackgroundColor=none;endSize=12;fontSize=12;curved=1;" edge="1" parent="WIyWlLk6GJQsqaUBKTNV-1">
          <mxGeometry x="-1" y="10" relative="1" as="geometry">
            <mxPoint x="500" y="480" as="targetPoint" />
            <mxPoint x="499.64" y="450" as="sourcePoint" />
            <Array as="points" />
            <mxPoint as="offset" />
          </mxGeometry>
        </mxCell>
        <mxCell id="ohkI9ZFS-GwTWgNQGemk-45" value="" style="edgeStyle=elbowEdgeStyle;html=1;elbow=vertical;verticalAlign=bottom;endArrow=open;rounded=0;labelBackgroundColor=none;endSize=12;fontSize=12;curved=1;" edge="1" parent="WIyWlLk6GJQsqaUBKTNV-1">
          <mxGeometry x="-1" y="10" relative="1" as="geometry">
            <mxPoint x="660" y="480" as="targetPoint" />
            <mxPoint x="659.64" y="450" as="sourcePoint" />
            <Array as="points" />
            <mxPoint as="offset" />
          </mxGeometry>
        </mxCell>
        <mxCell id="ohkI9ZFS-GwTWgNQGemk-46" value="chọn ảnh từ thiết bị" style="rounded=1;whiteSpace=wrap;html=1;" vertex="1" parent="WIyWlLk6GJQsqaUBKTNV-1">
          <mxGeometry x="610" y="480" width="100" height="40" as="geometry" />
        </mxCell>
        <mxCell id="ohkI9ZFS-GwTWgNQGemk-47" value="" style="endArrow=none;html=1;rounded=0;fontSize=12;startSize=8;endSize=8;curved=1;" edge="1" parent="WIyWlLk6GJQsqaUBKTNV-1">
          <mxGeometry width="50" height="50" relative="1" as="geometry">
            <mxPoint x="540" y="570" as="sourcePoint" />
            <mxPoint x="620" y="570" as="targetPoint" />
          </mxGeometry>
        </mxCell>
        <mxCell id="ohkI9ZFS-GwTWgNQGemk-49" value="" style="endArrow=open;startArrow=none;endFill=0;startFill=0;endSize=8;html=1;verticalAlign=bottom;labelBackgroundColor=none;strokeWidth=1;rounded=0;fontSize=12;curved=1;exitX=0.5;exitY=1;exitDx=0;exitDy=0;" edge="1" parent="WIyWlLk6GJQsqaUBKTNV-1" source="ohkI9ZFS-GwTWgNQGemk-46">
          <mxGeometry width="160" relative="1" as="geometry">
            <mxPoint x="600" y="510" as="sourcePoint" />
            <mxPoint x="600" y="570" as="targetPoint" />
          </mxGeometry>
        </mxCell>
        <mxCell id="ohkI9ZFS-GwTWgNQGemk-50" value="" style="endArrow=open;startArrow=none;endFill=0;startFill=0;endSize=8;html=1;verticalAlign=bottom;labelBackgroundColor=none;strokeWidth=1;rounded=0;fontSize=12;curved=1;exitX=0.5;exitY=1;exitDx=0;exitDy=0;" edge="1" parent="WIyWlLk6GJQsqaUBKTNV-1" source="ohkI9ZFS-GwTWgNQGemk-43">
          <mxGeometry width="160" relative="1" as="geometry">
            <mxPoint x="670" y="530" as="sourcePoint" />
            <mxPoint x="560" y="570" as="targetPoint" />
          </mxGeometry>
        </mxCell>
        <mxCell id="ohkI9ZFS-GwTWgNQGemk-51" value="" style="endArrow=open;startArrow=none;endFill=0;startFill=0;endSize=8;html=1;verticalAlign=bottom;labelBackgroundColor=none;strokeWidth=1;rounded=0;fontSize=12;curved=1;" edge="1" parent="WIyWlLk6GJQsqaUBKTNV-1">
          <mxGeometry width="160" relative="1" as="geometry">
            <mxPoint x="580" y="570" as="sourcePoint" />
            <mxPoint x="580" y="610" as="targetPoint" />
          </mxGeometry>
        </mxCell>
        <mxCell id="ohkI9ZFS-GwTWgNQGemk-52" value="Xác nhận&amp;nbsp;" style="rounded=1;whiteSpace=wrap;html=1;" vertex="1" parent="WIyWlLk6GJQsqaUBKTNV-1">
          <mxGeometry x="530" y="610" width="100" height="40" as="geometry" />
        </mxCell>
        <mxCell id="ohkI9ZFS-GwTWgNQGemk-53" value="" style="endArrow=open;startArrow=none;endFill=0;startFill=0;endSize=8;html=1;verticalAlign=bottom;labelBackgroundColor=none;strokeWidth=1;rounded=0;fontSize=12;curved=1;" edge="1" parent="WIyWlLk6GJQsqaUBKTNV-1" target="ohkI9ZFS-GwTWgNQGemk-54">
          <mxGeometry width="160" relative="1" as="geometry">
            <mxPoint x="579.72" y="650" as="sourcePoint" />
            <mxPoint x="579.72" y="690" as="targetPoint" />
          </mxGeometry>
        </mxCell>
        <mxCell id="ohkI9ZFS-GwTWgNQGemk-54" value="" style="ellipse;html=1;shape=endState;fillColor=strokeColor;" vertex="1" parent="WIyWlLk6GJQsqaUBKTNV-1">
          <mxGeometry x="564.72" y="675" width="30" height="30" as="geometry" />
        </mxCell>
        <mxCell id="ohkI9ZFS-GwTWgNQGemk-57" value="" style="shape=rhombus;html=1;verticalLabelPosition=bottom;verticalAlignment=top;" vertex="1" parent="WIyWlLk6GJQsqaUBKTNV-1">
          <mxGeometry x="260" y="320" width="40" height="40" as="geometry" />
        </mxCell>
        <mxCell id="ohkI9ZFS-GwTWgNQGemk-58" value="[sửa tên quán]" style="edgeStyle=elbowEdgeStyle;html=1;elbow=vertical;verticalAlign=bottom;endArrow=open;rounded=0;labelBackgroundColor=none;endSize=12;fontSize=12;curved=1;" edge="1" parent="WIyWlLk6GJQsqaUBKTNV-1">
          <mxGeometry x="-0.99" relative="1" as="geometry">
            <mxPoint x="360" y="400" as="targetPoint" />
            <mxPoint x="359.9999999999999" y="339.699696969697" as="sourcePoint" />
            <mxPoint as="offset" />
          </mxGeometry>
        </mxCell>
        <mxCell id="ohkI9ZFS-GwTWgNQGemk-59" value="[sửa địa&amp;nbsp;&lt;div&gt;chỉ quán]&lt;/div&gt;" style="edgeStyle=elbowEdgeStyle;html=1;elbow=vertical;verticalAlign=bottom;endArrow=open;rounded=0;labelBackgroundColor=none;endSize=12;fontSize=12;curved=1;entryX=0.5;entryY=0;entryDx=0;entryDy=0;" edge="1" parent="WIyWlLk6GJQsqaUBKTNV-1" target="ohkI9ZFS-GwTWgNQGemk-61">
          <mxGeometry x="-1" y="10" relative="1" as="geometry">
            <mxPoint x="180" y="345" as="targetPoint" />
            <mxPoint x="200" y="340" as="sourcePoint" />
            <Array as="points" />
            <mxPoint as="offset" />
          </mxGeometry>
        </mxCell>
        <mxCell id="ohkI9ZFS-GwTWgNQGemk-60" value="" style="endArrow=none;html=1;rounded=0;fontSize=12;startSize=8;endSize=8;curved=1;exitX=0;exitY=0.5;exitDx=0;exitDy=0;" edge="1" parent="WIyWlLk6GJQsqaUBKTNV-1" source="ohkI9ZFS-GwTWgNQGemk-57">
          <mxGeometry width="50" height="50" relative="1" as="geometry">
            <mxPoint x="320" y="350" as="sourcePoint" />
            <mxPoint x="200" y="340" as="targetPoint" />
            <Array as="points">
              <mxPoint x="200" y="340" />
            </Array>
          </mxGeometry>
        </mxCell>
        <mxCell id="ohkI9ZFS-GwTWgNQGemk-61" value="chọn sửa địa chỉ quán" style="rounded=1;whiteSpace=wrap;html=1;" vertex="1" parent="WIyWlLk6GJQsqaUBKTNV-1">
          <mxGeometry x="150" y="400" width="100" height="50" as="geometry" />
        </mxCell>
        <mxCell id="ohkI9ZFS-GwTWgNQGemk-62" value="" style="endArrow=none;html=1;rounded=0;fontSize=12;startSize=8;endSize=8;curved=1;exitX=0;exitY=0.5;exitDx=0;exitDy=0;" edge="1" parent="WIyWlLk6GJQsqaUBKTNV-1">
          <mxGeometry width="50" height="50" relative="1" as="geometry">
            <mxPoint x="360" y="339.7" as="sourcePoint" />
            <mxPoint x="300" y="339.7" as="targetPoint" />
            <Array as="points">
              <mxPoint x="300" y="339.7" />
            </Array>
          </mxGeometry>
        </mxCell>
        <mxCell id="ohkI9ZFS-GwTWgNQGemk-63" value="chọn sửa tên quán" style="rounded=1;whiteSpace=wrap;html=1;" vertex="1" parent="WIyWlLk6GJQsqaUBKTNV-1">
          <mxGeometry x="310" y="400" width="100" height="50" as="geometry" />
        </mxCell>
        <mxCell id="ohkI9ZFS-GwTWgNQGemk-64" value="Điền thông tin địa chỉ" style="rounded=1;whiteSpace=wrap;html=1;" vertex="1" parent="WIyWlLk6GJQsqaUBKTNV-1">
          <mxGeometry x="150" y="480" width="100" height="40" as="geometry" />
        </mxCell>
        <mxCell id="ohkI9ZFS-GwTWgNQGemk-65" value="" style="edgeStyle=elbowEdgeStyle;html=1;elbow=vertical;verticalAlign=bottom;endArrow=open;rounded=0;labelBackgroundColor=none;endSize=12;fontSize=12;curved=1;" edge="1" parent="WIyWlLk6GJQsqaUBKTNV-1">
          <mxGeometry x="-1" y="10" relative="1" as="geometry">
            <mxPoint x="200" y="480" as="targetPoint" />
            <mxPoint x="199.64" y="450" as="sourcePoint" />
            <Array as="points" />
            <mxPoint as="offset" />
          </mxGeometry>
        </mxCell>
        <mxCell id="ohkI9ZFS-GwTWgNQGemk-66" value="" style="edgeStyle=elbowEdgeStyle;html=1;elbow=vertical;verticalAlign=bottom;endArrow=open;rounded=0;labelBackgroundColor=none;endSize=12;fontSize=12;curved=1;" edge="1" parent="WIyWlLk6GJQsqaUBKTNV-1">
          <mxGeometry x="-1" y="10" relative="1" as="geometry">
            <mxPoint x="360" y="480" as="targetPoint" />
            <mxPoint x="359.64" y="450" as="sourcePoint" />
            <Array as="points" />
            <mxPoint as="offset" />
          </mxGeometry>
        </mxCell>
        <mxCell id="ohkI9ZFS-GwTWgNQGemk-67" value="điền lại tên quán" style="rounded=1;whiteSpace=wrap;html=1;" vertex="1" parent="WIyWlLk6GJQsqaUBKTNV-1">
          <mxGeometry x="310" y="480" width="100" height="40" as="geometry" />
        </mxCell>
        <mxCell id="ohkI9ZFS-GwTWgNQGemk-68" value="" style="endArrow=none;html=1;rounded=0;fontSize=12;startSize=8;endSize=8;curved=1;" edge="1" parent="WIyWlLk6GJQsqaUBKTNV-1">
          <mxGeometry width="50" height="50" relative="1" as="geometry">
            <mxPoint x="240" y="570" as="sourcePoint" />
            <mxPoint x="320" y="570" as="targetPoint" />
          </mxGeometry>
        </mxCell>
        <mxCell id="ohkI9ZFS-GwTWgNQGemk-69" value="" style="endArrow=open;startArrow=none;endFill=0;startFill=0;endSize=8;html=1;verticalAlign=bottom;labelBackgroundColor=none;strokeWidth=1;rounded=0;fontSize=12;curved=1;exitX=0.5;exitY=1;exitDx=0;exitDy=0;" edge="1" parent="WIyWlLk6GJQsqaUBKTNV-1" source="ohkI9ZFS-GwTWgNQGemk-67">
          <mxGeometry width="160" relative="1" as="geometry">
            <mxPoint x="300" y="510" as="sourcePoint" />
            <mxPoint x="300" y="570" as="targetPoint" />
          </mxGeometry>
        </mxCell>
        <mxCell id="ohkI9ZFS-GwTWgNQGemk-70" value="" style="endArrow=open;startArrow=none;endFill=0;startFill=0;endSize=8;html=1;verticalAlign=bottom;labelBackgroundColor=none;strokeWidth=1;rounded=0;fontSize=12;curved=1;exitX=0.5;exitY=1;exitDx=0;exitDy=0;" edge="1" parent="WIyWlLk6GJQsqaUBKTNV-1" source="ohkI9ZFS-GwTWgNQGemk-64">
          <mxGeometry width="160" relative="1" as="geometry">
            <mxPoint x="370" y="530" as="sourcePoint" />
            <mxPoint x="260" y="570" as="targetPoint" />
          </mxGeometry>
        </mxCell>
        <mxCell id="ohkI9ZFS-GwTWgNQGemk-71" value="" style="endArrow=open;startArrow=none;endFill=0;startFill=0;endSize=8;html=1;verticalAlign=bottom;labelBackgroundColor=none;strokeWidth=1;rounded=0;fontSize=12;curved=1;" edge="1" parent="WIyWlLk6GJQsqaUBKTNV-1">
          <mxGeometry width="160" relative="1" as="geometry">
            <mxPoint x="280" y="570" as="sourcePoint" />
            <mxPoint x="280" y="610" as="targetPoint" />
          </mxGeometry>
        </mxCell>
        <mxCell id="ohkI9ZFS-GwTWgNQGemk-72" value="Xác nhận" style="rounded=1;whiteSpace=wrap;html=1;" vertex="1" parent="WIyWlLk6GJQsqaUBKTNV-1">
          <mxGeometry x="230" y="610" width="100" height="40" as="geometry" />
        </mxCell>
        <mxCell id="ohkI9ZFS-GwTWgNQGemk-73" value="" style="endArrow=open;startArrow=none;endFill=0;startFill=0;endSize=8;html=1;verticalAlign=bottom;labelBackgroundColor=none;strokeWidth=1;rounded=0;fontSize=12;curved=1;" edge="1" parent="WIyWlLk6GJQsqaUBKTNV-1" target="ohkI9ZFS-GwTWgNQGemk-74">
          <mxGeometry width="160" relative="1" as="geometry">
            <mxPoint x="279.72" y="650" as="sourcePoint" />
            <mxPoint x="279.72" y="690" as="targetPoint" />
          </mxGeometry>
        </mxCell>
        <mxCell id="ohkI9ZFS-GwTWgNQGemk-74" value="" style="ellipse;html=1;shape=endState;fillColor=strokeColor;" vertex="1" parent="WIyWlLk6GJQsqaUBKTNV-1">
          <mxGeometry x="264.72" y="675" width="30" height="30" as="geometry" />
        </mxCell>
        <mxCell id="ohkI9ZFS-GwTWgNQGemk-76" value="" style="shape=rhombus;html=1;verticalLabelPosition=bottom;verticalAlignment=top;" vertex="1" parent="WIyWlLk6GJQsqaUBKTNV-1">
          <mxGeometry x="-60" y="320" width="40" height="40" as="geometry" />
        </mxCell>
        <mxCell id="ohkI9ZFS-GwTWgNQGemk-77" value="[xóa các địa chỉ của&amp;nbsp;&lt;div&gt;các chi nhánh khác]&lt;/div&gt;" style="edgeStyle=elbowEdgeStyle;html=1;elbow=vertical;verticalAlign=bottom;endArrow=open;rounded=0;labelBackgroundColor=none;endSize=12;fontSize=12;curved=1;" edge="1" parent="WIyWlLk6GJQsqaUBKTNV-1">
          <mxGeometry x="-0.99" relative="1" as="geometry">
            <mxPoint x="80" y="400" as="targetPoint" />
            <mxPoint x="79.99999999999989" y="339.699696969697" as="sourcePoint" />
            <mxPoint as="offset" />
          </mxGeometry>
        </mxCell>
        <mxCell id="ohkI9ZFS-GwTWgNQGemk-78" value="[xóa ảnh]" style="edgeStyle=elbowEdgeStyle;html=1;elbow=vertical;verticalAlign=bottom;endArrow=open;rounded=0;labelBackgroundColor=none;endSize=12;fontSize=12;curved=1;entryX=0.5;entryY=0;entryDx=0;entryDy=0;" edge="1" parent="WIyWlLk6GJQsqaUBKTNV-1" target="ohkI9ZFS-GwTWgNQGemk-80">
          <mxGeometry x="-1" y="10" relative="1" as="geometry">
            <mxPoint x="-100" y="345" as="targetPoint" />
            <mxPoint x="-150" y="340" as="sourcePoint" />
            <Array as="points" />
            <mxPoint as="offset" />
          </mxGeometry>
        </mxCell>
        <mxCell id="ohkI9ZFS-GwTWgNQGemk-80" value="chọn sửa địa chỉ quán" style="rounded=1;whiteSpace=wrap;html=1;" vertex="1" parent="WIyWlLk6GJQsqaUBKTNV-1">
          <mxGeometry x="-190" y="400" width="80" height="50" as="geometry" />
        </mxCell>
        <mxCell id="ohkI9ZFS-GwTWgNQGemk-82" value="chọn sửa tên quán" style="rounded=1;whiteSpace=wrap;html=1;" vertex="1" parent="WIyWlLk6GJQsqaUBKTNV-1">
          <mxGeometry x="40" y="400" width="80" height="50" as="geometry" />
        </mxCell>
        <mxCell id="ohkI9ZFS-GwTWgNQGemk-83" value="Điền thông tin địa chỉ" style="rounded=1;whiteSpace=wrap;html=1;" vertex="1" parent="WIyWlLk6GJQsqaUBKTNV-1">
          <mxGeometry x="-190" y="480" width="80" height="40" as="geometry" />
        </mxCell>
        <mxCell id="ohkI9ZFS-GwTWgNQGemk-84" value="" style="edgeStyle=elbowEdgeStyle;html=1;elbow=vertical;verticalAlign=bottom;endArrow=open;rounded=0;labelBackgroundColor=none;endSize=12;fontSize=12;curved=1;" edge="1" parent="WIyWlLk6GJQsqaUBKTNV-1">
          <mxGeometry x="-1" y="10" relative="1" as="geometry">
            <mxPoint x="-150" y="480" as="targetPoint" />
            <mxPoint x="-150.36" y="450" as="sourcePoint" />
            <Array as="points" />
            <mxPoint as="offset" />
          </mxGeometry>
        </mxCell>
        <mxCell id="ohkI9ZFS-GwTWgNQGemk-85" value="" style="edgeStyle=elbowEdgeStyle;html=1;elbow=vertical;verticalAlign=bottom;endArrow=open;rounded=0;labelBackgroundColor=none;endSize=12;fontSize=12;curved=1;" edge="1" parent="WIyWlLk6GJQsqaUBKTNV-1">
          <mxGeometry x="-1" y="10" relative="1" as="geometry">
            <mxPoint x="80" y="480" as="targetPoint" />
            <mxPoint x="79.63999999999999" y="450" as="sourcePoint" />
            <Array as="points" />
            <mxPoint as="offset" />
          </mxGeometry>
        </mxCell>
        <mxCell id="ohkI9ZFS-GwTWgNQGemk-86" value="điền lại tên quán" style="rounded=1;whiteSpace=wrap;html=1;" vertex="1" parent="WIyWlLk6GJQsqaUBKTNV-1">
          <mxGeometry x="45" y="480" width="70" height="40" as="geometry" />
        </mxCell>
        <mxCell id="ohkI9ZFS-GwTWgNQGemk-87" value="" style="endArrow=none;html=1;rounded=0;fontSize=12;startSize=8;endSize=8;curved=1;" edge="1" parent="WIyWlLk6GJQsqaUBKTNV-1">
          <mxGeometry width="50" height="50" relative="1" as="geometry">
            <mxPoint x="-80" y="570" as="sourcePoint" />
            <mxPoint y="570" as="targetPoint" />
          </mxGeometry>
        </mxCell>
        <mxCell id="ohkI9ZFS-GwTWgNQGemk-88" value="" style="endArrow=open;startArrow=none;endFill=0;startFill=0;endSize=8;html=1;verticalAlign=bottom;labelBackgroundColor=none;strokeWidth=1;rounded=0;fontSize=12;curved=1;exitX=0.5;exitY=1;exitDx=0;exitDy=0;" edge="1" parent="WIyWlLk6GJQsqaUBKTNV-1" source="ohkI9ZFS-GwTWgNQGemk-86">
          <mxGeometry width="160" relative="1" as="geometry">
            <mxPoint x="20" y="510" as="sourcePoint" />
            <mxPoint x="-10" y="570" as="targetPoint" />
          </mxGeometry>
        </mxCell>
        <mxCell id="ohkI9ZFS-GwTWgNQGemk-89" value="" style="endArrow=open;startArrow=none;endFill=0;startFill=0;endSize=8;html=1;verticalAlign=bottom;labelBackgroundColor=none;strokeWidth=1;rounded=0;fontSize=12;curved=1;exitX=0.5;exitY=1;exitDx=0;exitDy=0;" edge="1" parent="WIyWlLk6GJQsqaUBKTNV-1" source="ohkI9ZFS-GwTWgNQGemk-83">
          <mxGeometry width="160" relative="1" as="geometry">
            <mxPoint x="90" y="530" as="sourcePoint" />
            <mxPoint x="-60" y="570" as="targetPoint" />
          </mxGeometry>
        </mxCell>
        <mxCell id="ohkI9ZFS-GwTWgNQGemk-90" value="" style="endArrow=open;startArrow=none;endFill=0;startFill=0;endSize=8;html=1;verticalAlign=bottom;labelBackgroundColor=none;strokeWidth=1;rounded=0;fontSize=12;curved=1;" edge="1" parent="WIyWlLk6GJQsqaUBKTNV-1">
          <mxGeometry width="160" relative="1" as="geometry">
            <mxPoint x="-40" y="570" as="sourcePoint" />
            <mxPoint x="-40" y="610" as="targetPoint" />
          </mxGeometry>
        </mxCell>
        <mxCell id="ohkI9ZFS-GwTWgNQGemk-91" value="Xác nhận&amp;nbsp;" style="rounded=1;whiteSpace=wrap;html=1;" vertex="1" parent="WIyWlLk6GJQsqaUBKTNV-1">
          <mxGeometry x="-90" y="610" width="100" height="40" as="geometry" />
        </mxCell>
        <mxCell id="ohkI9ZFS-GwTWgNQGemk-92" value="" style="endArrow=open;startArrow=none;endFill=0;startFill=0;endSize=8;html=1;verticalAlign=bottom;labelBackgroundColor=none;strokeWidth=1;rounded=0;fontSize=12;curved=1;" edge="1" parent="WIyWlLk6GJQsqaUBKTNV-1" target="ohkI9ZFS-GwTWgNQGemk-93">
          <mxGeometry width="160" relative="1" as="geometry">
            <mxPoint x="-40.27999999999997" y="650" as="sourcePoint" />
            <mxPoint x="-40.27999999999997" y="690" as="targetPoint" />
          </mxGeometry>
        </mxCell>
        <mxCell id="ohkI9ZFS-GwTWgNQGemk-93" value="" style="ellipse;html=1;shape=endState;fillColor=strokeColor;" vertex="1" parent="WIyWlLk6GJQsqaUBKTNV-1">
          <mxGeometry x="-55.27999999999997" y="675" width="30" height="30" as="geometry" />
        </mxCell>
        <mxCell id="ohkI9ZFS-GwTWgNQGemk-94" value="" style="endArrow=none;html=1;rounded=0;fontSize=12;startSize=8;endSize=8;curved=1;entryX=0;entryY=0.5;entryDx=0;entryDy=0;" edge="1" parent="WIyWlLk6GJQsqaUBKTNV-1" target="ohkI9ZFS-GwTWgNQGemk-76">
          <mxGeometry width="50" height="50" relative="1" as="geometry">
            <mxPoint x="-150" y="340" as="sourcePoint" />
            <mxPoint x="-80" y="390" as="targetPoint" />
          </mxGeometry>
        </mxCell>
        <mxCell id="ohkI9ZFS-GwTWgNQGemk-95" value="" style="endArrow=none;html=1;rounded=0;fontSize=12;startSize=8;endSize=8;curved=1;exitX=1;exitY=0.5;exitDx=0;exitDy=0;" edge="1" parent="WIyWlLk6GJQsqaUBKTNV-1" source="ohkI9ZFS-GwTWgNQGemk-76">
          <mxGeometry width="50" height="50" relative="1" as="geometry">
            <mxPoint x="-10" y="370" as="sourcePoint" />
            <mxPoint x="80" y="340" as="targetPoint" />
          </mxGeometry>
        </mxCell>
        <mxCell id="ohkI9ZFS-GwTWgNQGemk-96" value="" style="edgeStyle=elbowEdgeStyle;html=1;elbow=vertical;verticalAlign=bottom;endArrow=open;rounded=0;labelBackgroundColor=none;endSize=12;fontSize=12;curved=1;entryX=0.5;entryY=0;entryDx=0;entryDy=0;" edge="1" parent="WIyWlLk6GJQsqaUBKTNV-1">
          <mxGeometry x="-1" y="10" relative="1" as="geometry">
            <mxPoint x="-40.36" y="420" as="targetPoint" />
            <mxPoint x="-40.36" y="360" as="sourcePoint" />
            <Array as="points" />
            <mxPoint as="offset" />
          </mxGeometry>
        </mxCell>
        <mxCell id="ohkI9ZFS-GwTWgNQGemk-99" value="[Xóa hết&amp;nbsp;&lt;div&gt;thông tin quán]&lt;/div&gt;" style="edgeLabel;html=1;align=center;verticalAlign=middle;resizable=0;points=[];fontSize=12;" connectable="0" vertex="1" parent="ohkI9ZFS-GwTWgNQGemk-96">
          <mxGeometry x="-0.4333" y="-2" relative="1" as="geometry">
            <mxPoint as="offset" />
          </mxGeometry>
        </mxCell>
        <mxCell id="ohkI9ZFS-GwTWgNQGemk-98" value="" style="endArrow=open;startArrow=none;endFill=0;startFill=0;endSize=8;html=1;verticalAlign=bottom;labelBackgroundColor=none;strokeWidth=1;rounded=0;fontSize=12;curved=1;exitX=0.5;exitY=1;exitDx=0;exitDy=0;" edge="1" parent="WIyWlLk6GJQsqaUBKTNV-1">
          <mxGeometry width="160" relative="1" as="geometry">
            <mxPoint x="-40.42" y="460.0000000000001" as="sourcePoint" />
            <mxPoint x="-40.42" y="570" as="targetPoint" />
          </mxGeometry>
        </mxCell>
        <mxCell id="ohkI9ZFS-GwTWgNQGemk-100" value="chọn xóa hết thông tin quán" style="rounded=1;whiteSpace=wrap;html=1;" vertex="1" parent="WIyWlLk6GJQsqaUBKTNV-1">
          <mxGeometry x="-80" y="420" width="80" height="50" as="geometry" />
        </mxCell>
        <mxCell id="ohkI9ZFS-GwTWgNQGemk-102" value="cửa hàng" style="rounded=0;whiteSpace=wrap;html=1;" vertex="1" parent="WIyWlLk6GJQsqaUBKTNV-1">
          <mxGeometry x="235" y="30" width="90" height="30" as="geometry" />
        </mxCell>
        <mxCell id="ohkI9ZFS-GwTWgNQGemk-103" value="" style="html=1;verticalAlign=bottom;labelBackgroundColor=none;endArrow=open;endFill=0;dashed=1;rounded=0;fontSize=12;startSize=8;endSize=8;curved=1;exitX=0.5;exitY=0;exitDx=0;exitDy=0;entryX=0.5;entryY=1;entryDx=0;entryDy=0;" edge="1" parent="WIyWlLk6GJQsqaUBKTNV-1" source="ohkI9ZFS-GwTWgNQGemk-3" target="ohkI9ZFS-GwTWgNQGemk-102">
          <mxGeometry width="160" relative="1" as="geometry">
            <mxPoint x="230" y="10" as="sourcePoint" />
            <mxPoint x="390" y="10" as="targetPoint" />
          </mxGeometry>
        </mxCell>
      </root>
    </mxGraphModel>
  </diagram>
</mxfile>
